<svg xmlns="http://www.w3.org/2000/svg" viewBox="0 0 32 32">
  <!-- background circle -->
  <circle cx="16" cy="16" r="16" fill="#25D366"/>
  <!-- WhatsApp phone icon (white) -->
  <path fill="#ffffff" d="M16 4.5C9.65 4.5 4.5 9.65 4.5 16c0 2.04.52 4.02 1.5 5.78L4.5 27.5l5.88-1.48A11.42 11.42 0 0 0 16 27.5c6.35 0 11.5-5.15 11.5-11.5S22.35 4.5 16 4.5zm0 21c-1.8 0-3.55-.48-5.08-1.38l-.36-.21-3.76.99 1-3.67-.24-.38A9.48 9.48 0 0 1 6.5 16C6.5 10.76 10.76 6.5 16 6.5S25.5 10.76 25.5 16 21.24 25.5 16 25.5zm5.18-7.1c-.28-.14-1.64-.81-1.9-.9-.25-.1-.44-.14-.62.14-.18.28-.7.9-.86 1.08-.16.18-.32.2-.6.07-.28-.14-1.18-.44-2.25-1.39-.83-.74-1.4-1.66-1.56-1.94-.16-.28-.02-.43.12-.57.13-.12.28-.32.42-.48.14-.16.18-.28.28-.46.09-.18.05-.34-.02-.48-.07-.14-.62-1.5-.85-2.06-.22-.54-.45-.47-.62-.47h-.53c-.18 0-.48.07-.73.34-.25.28-.97.95-.97 2.32s1 2.7 1.14 2.88c.14.18 1.97 3.01 4.77 4.22.67.29 1.19.46 1.6.58.67.21 1.28.18 1.76.11.54-.08 1.64-.67 1.87-1.32.23-.65.23-1.21.16-1.32-.07-.11-.25-.18-.53-.32z"/>
</svg>
